# xmcd
#
# Track frame offsets: 
#        150
#        12925
#        38494
#        54865
#        68661
#        83631
#        97525
#        115697
#        131986
#        153521
#        163747
#        178520
#        190810
#        207042
#        220280
#        248067
#        261754
#        279251
#        305861
#        319610
#
# Disc length: 4539 seconds
#
# Revision: 0
# Processed by: cddbd v1.5.2PL0 Copyright (c) Steve Scherf et al.
# Submitted via: ExactAudioCopy v1.1
#
DISCID=0411b914
DTITLE=Muddy Waters - Fathers And Sons
DYEAR=1969
DGENRE=Blues
TTITLE0=All Aboard (1969) (stereo)
TTITLE1=Mean Disposition (stereo)
TTITLE2=Blow Wind Blow (stereo)
TTITLE3=Can't Lose What You Ain't Never Had (stereo)
TTITLE4=Walking Thru The Park (stereo)
TTITLE5=Forty Days And Forty Nights (stereo)
TTITLE6=Standin' Around Cryin' (1969) (stereo)
TTITLE7=I'm Ready (1969) (stereo)
TTITLE8=Twenty Four Hours (stereo)
TTITLE9=Sugar Sweet (stereo)
TTITLE10=Country Boy (1969) (stereo)
TTITLE11=I Love The Life I Live (I Live The Life I Love) (stereo)
TTITLE12=Oh Yeah (stereo)
TTITLE13=I Feel So Good (stereo)
TTITLE14=Long Distance Call (live) (stereo)
TTITLE15=Baby Please Don't Go (live) (stereo)
TTITLE16=Honey Bee (live) (stereo)
TTITLE17=The Same Thing (live) (stereo)
TTITLE18=Got My Mojo Working (Part 1) (live) (stereo)
TTITLE19=Got My Mojo Working (Part 2) (live) (stereo)
EXTD=
EXTT0=
EXTT1=
EXTT2=
EXTT3=
EXTT4=
EXTT5=
EXTT6=
EXTT7=
EXTT8=
EXTT9=
EXTT10=
EXTT11=
EXTT12=
EXTT13=
EXTT14=
EXTT15=
EXTT16=
EXTT17=
EXTT18=
EXTT19=
PLAYORDER=
